# xmcd
#
# Track frame offsets: 
#        183
#        28123
#        54070
#        81478
#        109280
#        137568
#        164225
#        190768
#
# Disc length: 2968 seconds
#
# Revision: 1
# Processed by: cddbd v1.5.2PL0 Copyright (c) Steve Scherf et al.
# Submitted via: ExactAudioCopy v1.3
#
DISCID=6b0b9608
DTITLE=Entouch - All Nite
DYEAR=1989
DGENRE=Funk
TTITLE0=All Nite
TTITLE1=4ever
TTITLE2=II Steps 2 The Right
TTITLE3=Whatchagonnado
TTITLE4=II Hype
TTITLE5=Scratch My Back
TTITLE6=Crazay 4 U
TTITLE7=Just A Little Bit Of Luv
EXTD=
EXTT0=
EXTT1=
EXTT2=
EXTT3=
EXTT4=
EXTT5=
EXTT6=
EXTT7=
PLAYORDER=
